<svg width="30" height="29" viewBox="0 0 30 29" fill="none" xmlns="http://www.w3.org/2000/svg">
<path d="M23.25 0C24.1786 0 25.0719 0.344504 25.7588 0.962891L25.8936 1.09082L25.8955 1.0918L27.665 2.8623L27.667 2.86328C28.3654 3.56589 28.7578 4.51712 28.7578 5.50781C28.7577 6.49835 28.3653 7.44886 27.667 8.15137L27.665 8.15234L7.71289 28.1045C7.29381 28.5202 6.72796 28.7553 6.1377 28.7578H0.75C0.335931 28.7578 0.000234926 28.4218 0 28.0078V22.6191L0.0117188 22.3994C0.0638922 21.8899 0.288593 21.4107 0.652344 21.0439L20.6045 1.0918L20.6064 1.09082C21.3091 0.392379 22.2593 0 23.25 0ZM28.75 27.2578C29.1642 27.2578 29.5 27.5936 29.5 28.0078C29.5 28.422 29.1642 28.7578 28.75 28.7578H14.75C14.3358 28.7578 14 28.422 14 28.0078C14 27.5936 14.3358 27.2578 14.75 27.2578H28.75ZM23.25 1.5C22.6557 1.5 22.0856 1.73533 21.6641 2.1543L21.6631 2.15332L1.7168 22.0996C1.57824 22.2393 1.50083 22.4292 1.5 22.626V27.2578H6.13184C6.32749 27.257 6.51484 27.1791 6.6543 27.042L26.6045 7.0918C27.0224 6.67049 27.2577 6.10131 27.2578 5.50781C27.2578 4.9139 27.0229 4.34333 26.6045 3.92188L24.8359 2.15332C24.4144 1.73465 23.8441 1.5 23.25 1.5Z" fill="#212121"/>
</svg>
