<svg width="256" height="256" viewBox="0 0 256 256" fill="none" xmlns="http://www.w3.org/2000/svg">
<path d="M152 208V160C152 157.878 151.157 155.844 149.657 154.343C148.157 152.843 146.122 152 144 152H112C109.878 152 107.843 152.843 106.343 154.343C104.843 155.844 104 157.878 104 160V208C104 210.122 103.157 212.157 101.657 213.657C100.157 215.157 98.1217 216 96 216H48C45.8783 216 43.8434 215.157 42.3431 213.657C40.8429 212.157 40 210.122 40 208V115.5C40.0179 114.393 40.2572 113.301 40.7037 112.287C41.1502 111.274 41.795 110.36 42.6 109.6L122.6 36.9002C124.075 35.551 126.001 34.8027 128 34.8027C129.999 34.8027 131.925 35.551 133.4 36.9002L213.4 109.6C214.205 110.36 214.85 111.274 215.296 112.287C215.743 113.301 215.982 114.393 216 115.5V208C216 210.122 215.157 212.157 213.657 213.657C212.157 215.157 210.122 216 208 216H160C157.878 216 155.843 215.157 154.343 213.657C152.843 212.157 152 210.122 152 208Z" stroke="#212121" stroke-width="16" stroke-linecap="round" stroke-linejoin="round"/>
</svg>
