<svg width="256" height="256" viewBox="0 0 256 256" fill="none" xmlns="http://www.w3.org/2000/svg">
<path d="M128 176C154.51 176 176 154.51 176 128C176 101.49 154.51 80 128 80C101.49 80 80 101.49 80 128C80 154.51 101.49 176 128 176Z" stroke="#212121" stroke-width="16" stroke-linecap="round" stroke-linejoin="round"/>
<path d="M197.4 80.7004C199.808 84.1471 201.915 87.7938 203.7 91.6004L229.6 106C232.834 120.485 232.868 135.501 229.7 150L203.7 164.4C201.915 168.207 199.808 171.854 197.4 175.3L197.9 205C186.924 215.003 173.932 222.538 159.8 227.1L134.3 211.8C130.106 212.1 125.895 212.1 121.7 211.8L96.3003 227C82.1234 222.521 69.0892 215.015 58.1003 205L58.6003 175.4C56.213 171.906 54.1064 168.228 52.3003 164.4L26.4003 150C23.1663 135.516 23.1321 120.5 26.3003 106L52.3003 91.6004C54.0851 87.7938 56.1928 84.1471 58.6003 80.7004L58.1003 51.0004C69.0768 40.998 82.0681 33.4624 96.2003 28.9004L121.7 44.2004C125.895 43.9003 130.106 43.9003 134.3 44.2004L159.7 29.0004C173.877 33.4794 186.911 40.9859 197.9 51.0004L197.4 80.7004Z" stroke="#212121" stroke-width="16" stroke-linecap="round" stroke-linejoin="round"/>
</svg>
