<svg width="256" height="256" viewBox="0 0 256 256" fill="none" xmlns="http://www.w3.org/2000/svg">
<path d="M228 200H220V40C220 37.8783 219.157 35.8434 217.657 34.3431C216.157 32.8429 214.122 32 212 32H156C153.878 32 151.843 32.8429 150.343 34.3431C148.843 35.8434 148 37.8783 148 40V80H100C97.8783 80 95.8434 80.8429 94.3431 82.3431C92.8429 83.8434 92 85.8783 92 88V128H44C41.8783 128 39.8434 128.843 38.3431 130.343C36.8429 131.843 36 133.878 36 136V200H28C25.8783 200 23.8434 200.843 22.3431 202.343C20.8429 203.843 20 205.878 20 208C20 210.122 20.8429 212.157 22.3431 213.657C23.8434 215.157 25.8783 216 28 216H228C230.122 216 232.157 215.157 233.657 213.657C235.157 212.157 236 210.122 236 208C236 205.878 235.157 203.843 233.657 202.343C232.157 200.843 230.122 200 228 200ZM108 96H148V200H108V96ZM52 144H92V200H52V144Z" fill="#212121"/>
</svg>
