<svg width="256" height="256" viewBox="0 0 256 256" fill="none" xmlns="http://www.w3.org/2000/svg">
<path d="M96 208C102.357 208.026 108.446 210.563 112.941 215.059C117.437 219.554 119.974 225.643 120 232C120 234.122 120.843 236.157 122.343 237.657C123.843 239.157 125.878 240 128 240C130.122 240 132.157 239.157 133.657 237.657C135.157 236.157 136 234.122 136 232C136.026 225.643 138.563 219.554 143.059 215.059C147.554 210.563 153.643 208.026 160 208H224C228.243 208 232.313 206.314 235.314 203.314C238.314 200.313 240 196.243 240 192V64C240 59.7565 238.314 55.6869 235.314 52.6863C232.313 49.6857 228.243 48 224 48H176C165.391 48 155.217 52.2143 147.716 59.7157C140.214 67.2172 136 77.3913 136 88V168C136 170.122 135.157 172.157 133.657 173.657C132.157 175.157 130.122 176 128 176C125.878 176 123.843 175.157 122.343 173.657C120.843 172.157 120 170.122 120 168V88C120 77.3913 115.786 67.2172 108.284 59.7157C100.783 52.2143 90.6087 48 80 48H32C27.7565 48 23.6869 49.6857 20.6863 52.6863C17.6857 55.6869 16 59.7565 16 64V192C16 196.243 17.6857 200.313 20.6863 203.314C23.6869 206.314 27.7565 208 32 208H96Z" fill="#212121"/>
</svg>
