<svg width="256" height="256" viewBox="0 0 256 256" fill="none" xmlns="http://www.w3.org/2000/svg">
<path d="M237.499 104.301C237.251 103.182 236.765 102.131 236.075 101.216C235.385 100.302 234.507 99.5463 233.499 99.0008L209.699 85.8008C208.433 83.2008 207.033 80.7008 205.499 78.3008L205.899 51.1008C205.909 49.9599 205.682 48.8294 205.235 47.7799C204.788 46.7303 204.129 45.7843 203.299 45.0008C191.449 34.2565 177.435 26.1752 162.199 21.3008C161.105 20.9596 159.951 20.8545 158.814 20.9925C157.676 21.1304 156.58 21.5081 155.599 22.1008L132.299 36.1008C129.399 36.0008 126.599 36.0008 123.699 36.1008L100.399 22.1008C99.4186 21.5081 98.323 21.1304 97.1853 20.9925C96.0476 20.8545 94.8936 20.9596 93.7995 21.3008C78.5441 26.1789 64.5238 34.2977 52.6995 45.1008C51.8629 45.8573 51.198 46.7842 50.7495 47.8192C50.301 48.8541 50.0794 49.973 50.0995 51.1008L50.5995 78.3008C48.9995 80.7008 47.5995 83.2008 46.1995 85.8008L22.4995 99.0008C21.4795 99.5298 20.5909 100.28 19.8988 101.197C19.2067 102.115 18.7285 103.175 18.4995 104.301C15.0991 119.918 15.0991 136.084 18.4995 151.701C18.7479 152.819 19.2335 153.871 19.9236 154.785C20.6137 155.7 21.4921 156.455 22.4995 157.001L46.2995 170.201C47.5753 172.788 49.0114 175.293 50.5995 177.701L50.0995 204.901C50.0903 206.042 50.3165 207.172 50.7638 208.222C51.2112 209.271 51.8701 210.217 52.6995 211.001C64.5662 221.723 78.5755 229.801 93.7995 234.701C94.8936 235.042 96.0476 235.147 97.1853 235.009C98.323 234.871 99.4186 234.493 100.399 233.901L123.699 219.901H132.299L155.699 233.901C156.916 234.701 158.344 235.119 159.799 235.101C160.613 235.066 161.419 234.931 162.199 234.701C177.455 229.823 191.475 221.704 203.299 210.901C204.136 210.144 204.801 209.217 205.249 208.182C205.698 207.148 205.92 206.029 205.899 204.901L205.499 177.701C206.999 175.301 208.399 172.801 209.799 170.201L233.599 157.001C234.592 156.45 235.455 155.691 236.128 154.776C236.801 153.862 237.269 152.813 237.499 151.701C240.9 136.084 240.9 119.918 237.499 104.301ZM171.999 128.001C171.999 136.703 169.419 145.21 164.584 152.446C159.749 159.682 152.877 165.321 144.838 168.651C136.798 171.982 127.951 172.853 119.415 171.155C110.88 169.458 103.04 165.267 96.8868 159.113C90.7332 152.96 86.5427 145.12 84.8449 136.585C83.1472 128.05 84.0185 119.203 87.3488 111.163C90.679 103.123 96.3186 96.2509 103.554 91.4161C110.79 86.5813 119.297 84.0008 127.999 84.0008C139.669 84.0008 150.861 88.6365 159.112 96.8881C167.364 105.14 171.999 116.331 171.999 128.001Z" fill="#212121"/>
</svg>
