<svg width="256" height="256" viewBox="0 0 256 256" fill="none" xmlns="http://www.w3.org/2000/svg">
<path d="M233.6 195.6L192.2 40.9995C191.099 36.9023 188.415 33.4101 184.74 31.2911C181.064 29.172 176.698 28.5995 172.6 29.6995L141.7 37.9995L140.7 38.2995C139.209 36.3442 137.288 34.7587 135.086 33.6662C132.883 32.5736 130.459 32.0033 128 31.9995H96C93.185 32.0071 90.4231 32.7666 88 34.1995C85.5769 32.7666 82.815 32.0071 80 31.9995H48C43.7565 31.9995 39.6869 33.6852 36.6863 36.6858C33.6857 39.6864 32 43.756 32 47.9995V208C32 212.243 33.6857 216.313 36.6863 219.313C39.6869 222.314 43.7565 224 48 224H80C82.815 223.992 85.5769 223.232 88 221.8C90.4231 223.232 93.185 223.992 96 224H128C132.243 224 136.313 222.314 139.314 219.313C142.314 216.313 144 212.243 144 208V108.4L171.8 212.1C172.706 215.517 174.718 218.538 177.522 220.691C180.326 222.844 183.765 224.007 187.3 224C188.68 223.976 190.054 223.808 191.4 223.5L222.3 215.2C226.397 214.098 229.889 211.415 232.008 207.739C234.128 204.064 234.7 199.697 233.6 195.6ZM176.7 45.1995L183 68.2995L152.1 76.5995L145.8 53.4995L176.7 45.1995ZM128 47.9995V168H96V47.9995H128ZM80 47.9995V71.9995H48V47.9995H80ZM128 208H96V184H128V208ZM218.2 199.7L187.3 208L181 184.8L212 176.5L218.2 199.7Z" fill="#212121"/>
</svg>
