<svg width="256" height="256" viewBox="0 0 256 256" fill="none" xmlns="http://www.w3.org/2000/svg">
<path d="M128 88C128 79.5131 131.371 71.3737 137.373 65.3726C143.374 59.3714 151.513 56 160 56H224C226.122 56 228.157 56.8429 229.657 58.3431C231.157 59.8434 232 61.8783 232 64V192C232 194.122 231.157 196.157 229.657 197.657C228.157 199.157 226.122 200 224 200H160C151.513 200 143.374 203.371 137.373 209.373C131.371 215.374 128 223.513 128 232" stroke="#212121" stroke-width="16" stroke-linecap="round" stroke-linejoin="round"/>
<path d="M24 192C24 194.122 24.8429 196.157 26.3431 197.657C27.8434 199.157 29.8783 200 32 200H96C104.487 200 112.626 203.371 118.627 209.373C124.629 215.374 128 223.513 128 232V88C128 79.5131 124.629 71.3737 118.627 65.3726C112.626 59.3714 104.487 56 96 56H32C29.8783 56 27.8434 56.8429 26.3431 58.3431C24.8429 59.8434 24 61.8783 24 64V192Z" stroke="#212121" stroke-width="16" stroke-linecap="round" stroke-linejoin="round"/>
</svg>
