<svg width="256" height="256" viewBox="0 0 256 256" fill="none" xmlns="http://www.w3.org/2000/svg">
<path d="M218.798 103.7L138.798 30.9996C135.849 28.3012 131.996 26.8047 127.998 26.8047C124.001 26.8047 120.148 28.3012 117.198 30.9996L37.1982 103.7C35.5603 105.198 34.2521 107.021 33.3568 109.053C32.4616 111.084 31.9989 113.28 31.9982 115.5V207.6C31.9332 211.633 33.3573 215.55 35.9982 218.6C37.4971 220.304 39.3435 221.668 41.4134 222.599C43.4832 223.531 45.7285 224.008 47.9982 224H95.9982C98.12 224 100.155 223.157 101.655 221.656C103.155 220.156 103.998 218.121 103.998 216V168C103.998 165.878 104.841 163.843 106.341 162.343C107.842 160.842 109.876 160 111.998 160H143.998C146.12 160 148.155 160.842 149.655 162.343C151.155 163.843 151.998 165.878 151.998 168V216C151.998 218.121 152.841 220.156 154.341 221.656C155.842 223.157 157.876 224 159.998 224H207.998C210.652 224.023 213.268 223.369 215.598 222.1C218.134 220.719 220.252 218.681 221.73 216.2C223.208 213.72 223.991 210.887 223.998 208V115.5C223.998 113.28 223.535 111.084 222.64 109.053C221.744 107.021 220.436 105.198 218.798 103.7Z" fill="#212121"/>
</svg>
