<svg width="179" height="179" viewBox="0 0 179 179" fill="none" xmlns="http://www.w3.org/2000/svg">
<rect width="179" height="179" rx="89.5" fill="#00BC7D"/>
<path d="M118.479 66C119.282 66 120.051 66.3237 120.617 66.8975C121.183 67.4712 121.5 68.2482 121.5 69.0566C121.5 69.8651 121.183 70.642 120.617 71.2158L80.2998 112.102C80.0197 112.386 79.6864 112.612 79.3193 112.767C78.9522 112.921 78.558 113 78.1602 113C77.7626 113 77.3689 112.921 77.002 112.767C76.7267 112.651 76.4703 112.494 76.2412 112.304L76.0215 112.102L58.3828 94.2139C57.817 93.6401 57.5 92.8632 57.5 92.0547C57.5001 91.2464 57.8171 90.4702 58.3828 89.8965C58.9489 89.3225 59.7179 88.998 60.5215 88.998C61.325 88.9981 62.0942 89.3225 62.6602 89.8965L78.1602 105.617L116.34 66.8975C116.906 66.3236 117.675 66.0001 118.479 66Z" fill="white" stroke="white"/>
</svg>
